<?xml version="1.0" encoding="UTF-8"?><svg id="Layer_1" xmlns="http://www.w3.org/2000/svg" viewBox="0 0 1200 630"><defs><style>.cls-1,.cls-2{fill:#262f6c;}.cls-3,.cls-2{fill-rule:evenodd;}.cls-3,.cls-4{fill:#f89f36;}</style></defs><g><g><path class="cls-2" d="M497.17,384.18h12.18c8.96,0,16.26-7.3,16.26-16.26v-79.36l33.78,95.62h11.5c7.05,0,13.07-4.27,15.37-10.94l29.61-85.63v96.57h11.81c8.96,0,16.26-7.3,16.26-16.26v-119.63h-25.95c-9.5,0-17.58,5.83-20.56,14.84l-26,78.48-31.68-93.32h-26.31c-8.96,0-16.26,7.3-16.26,16.26v119.63Z"/><path class="cls-2" d="M739.29,367.15l3.62,5.31c-12.1,8.61-23.29,12.89-38.49,11.44-64-6.11-54.58-102.01,.54-102.01,28.11,0,42.59,17.09,43.78,45.24,.39,9.13-6.36,16.83-14.75,16.83l-47.95,.36c.82,10.77,10.63,16.88,20.11,17.78,1.27,.12,2.44,.19,3.53,.22,3.61,.08,6.61-.53,9.38-1.57,7.51-2.83,15.72-.23,20.24,6.4h0Zm-54.26-41.83h42.08c-1.35-13.19-7.85-23.2-20.86-23.2s-20.68,8.45-21.22,23.2Z"/><path class="cls-2" d="M787.52,289.06c-32.14,19.19-28.66,70.92,.4,88.81,13.82,8.51,35.47,8.38,49.17-.29,14.53-9.21,22.53-26.96,22.71-44.7v-69.96c0-9.41-7.7-17.11-17.12-17.11h-7.41v43.26c-14.57-6.68-33.98-8.24-47.75-.02h0Zm12.64,18.35c5.46-3.47,12.4-4.31,18.59-2.53,23.05,6.64,22.78,58.97-6,58.97-30.22,0-27.18-47.18-12.59-56.44Z"/><path class="cls-2" d="M904.28,255.83v-7.92h-11.37c-9.44,0-17.12,7.69-17.12,17.11v7.06h12.23c8.96,0,16.26-7.31,16.26-16.26h0Zm0,29.58v81.66c0,9.42-7.7,17.11-17.12,17.11h-11.37v-82.51c0-8.96,7.3-16.26,16.25-16.26h12.23Z"/></g><g><path class="cls-3" d="M1073.87,367.15l3.62,5.31c-12.1,8.61-23.29,12.89-38.49,11.44-64-6.11-54.58-102.01,.54-102.01,28.11,0,42.59,17.09,43.78,45.24,.39,9.13-6.36,16.83-14.75,16.83l-47.95,.36c.82,10.77,10.63,16.88,20.11,17.78,1.27,.12,2.44,.19,3.53,.22,3.61,.08,6.61-.53,9.38-1.57,7.51-2.83,15.72-.23,20.24,6.4h0Zm-54.26-41.83h42.08c-1.35-13.19-7.85-23.2-20.86-23.2s-20.68,8.45-21.22,23.2Z"/><path class="cls-3" d="M1169.54,367.15l3.62,5.31c-12.1,8.61-23.29,12.89-38.49,11.44-64-6.11-54.58-102.01,.54-102.01,28.11,0,42.59,17.09,43.78,45.24,.39,9.13-6.36,16.83-14.75,16.83l-47.95,.36c.82,10.77,10.63,16.88,20.11,17.78,1.27,.12,2.44,.19,3.53,.22,3.61,.08,6.61-.53,9.38-1.57,7.51-2.83,15.72-.23,20.24,6.4h0Zm-54.26-41.83h42.08c-1.35-13.19-7.85-23.2-20.86-23.2s-20.68,8.45-21.22,23.2Z"/><path class="cls-3" d="M924.93,267.39c0-24.29,72.47-19.65,90.14-19.65v5.69c0,11.06-6.16,16.26-14.79,16.55-9.18,.31-38.73-.32-46.67,2.3v24.79l41.36-1.49,.23,5.06c.43,9.44-6.94,17.52-16.38,17.94l-25.31,.78c-.13,21.6,0,43.22,0,64.82h-11.49c-9.47,0-17.18-7.72-17.18-17.18,0-33.24,.09-66.4,.09-99.61Z"/></g></g><path class="cls-4" d="M446.72,384.18V245.82h0c-155.77,0-282.04,126.27-282.04,282.04h0s138.36,0,138.36,0h0c36.94-.47,64.56-15.12,64.56-34.47v-74.73c0-19.35-27.62-34-64.56-34.46h0s143.68-.01,143.68-.01Zm-90.82,109.21c0,10.57-21.63,22.34-52.86,22.78-.59,.01-1.18,.01-1.78,.01-32.22,0-54.65-12.02-54.65-22.79v-3.87c12.06,9.04,32.29,14.5,54.65,14.5,.6,0,1.19,0,1.78-.01,21.66-.29,41.13-5.69,52.86-14.49v3.87Zm0-23.85c0,2.6-1.28,5.23-3.83,7.85-8.42,8.68-27.96,14.6-49.03,14.91-.6,.02-1.18,.02-1.78,.02-21.74,0-42.17-6-50.82-14.93-2.54-2.63-3.83-5.26-3.83-7.85v-5.47c5.74,4.27,13.35,7.81,22.35,10.3,9.75,2.76,20.92,4.19,32.3,4.19,.6,0,1.18,0,1.78-.02,.83,0,1.65-.02,2.47-.05,1.42-.04,2.82-.12,4.23-.19,.93-.07,1.86-.14,2.79-.22,.62-.05,1.23-.1,1.83-.17,.61-.06,1.2-.13,1.82-.19,.77-.09,1.52-.19,2.28-.29,.74-.08,1.5-.2,2.26-.32,.66-.1,1.33-.2,2-.32,.45-.06,.88-.15,1.32-.23,1.3-.23,2.56-.48,3.82-.77,1.31-.29,2.59-.59,3.86-.92,.63-.15,1.25-.32,1.85-.49,9-2.5,16.63-6.05,22.34-10.31v5.47Zm0-25.45c0,2.82-1.5,5.67-4.49,8.5-4.47,4.26-11.92,7.99-21.01,10.52-8.25,2.33-17.68,3.61-27.36,3.75-.59,.01-1.18,.01-1.78,.01-10.32,0-20.39-1.29-29.14-3.76-.02,0-.05-.01-.07-.01-9.05-2.52-16.46-6.25-20.96-10.53-2.97-2.81-4.48-5.66-4.48-8.48v-5.37c11.76,8.83,31.45,14.41,54.65,14.41,.6,0,1.19,0,1.78-.02,22.44-.27,41.41-5.78,52.86-14.39v5.37Zm0-25.44c0,10.57-21.63,22.33-52.86,22.77-.59,.01-1.18,.01-1.78,.01-32.22,0-54.65-12.01-54.65-22.78s22.44-22.79,54.65-22.79c.6,0,1.19,0,1.78,.01,31.24,.44,52.86,12.21,52.86,22.78Z"/><path class="cls-1" d="M303.04,102.14h0c0,155.77-126.27,282.04-282.04,282.04h0V245.82H164.68V102.14h138.36Z"/></svg>